<?xml version="1.0" standalone="no"?>
<!DOCTYPE svg PUBLIC "-//W3C//DTD SVG 20010904//EN"
 "http://www.w3.org/TR/2001/REC-SVG-20010904/DTD/svg10.dtd">
<svg version="1.0" xmlns="http://www.w3.org/2000/svg"
 width="200.000000pt" height="200.000000pt" viewBox="0 0 200.000000 200.000000"
 preserveAspectRatio="xMidYMid meet">
<metadata>
Created by potrace 1.14, written by Peter Selinger 2001-2017
</metadata>
<g transform="translate(0.000000,200.000000) scale(0.100000,-0.100000)"
fill="#000000" stroke="none">
<path d="M887 1979 c-410 -43 -747 -343 -849 -756 -31 -124 -31 -322 0 -446
31 -123 76 -226 143 -326 234 -350 665 -512 1074 -406 260 68 505 266 625 505
195 389 122 842 -184 1146 -168 166 -362 259 -596 284 -105 11 -103 11 -213
-1z m356 -153 c296 -87 513 -306 599 -603 20 -66 23 -101 23 -233 0 -142 -3
-163 -29 -245 -15 -49 -46 -124 -68 -165 -273 -512 -977 -610 -1379 -193 -177
183 -257 395 -246 647 6 145 30 234 93 357 124 240 356 409 631 459 90 17 279
4 376 -24z"/>
<path d="M977 1505 c-52 -13 -82 -36 -104 -79 -8 -16 -19 -34 -24 -40 -6 -6
-46 -72 -91 -146 -44 -74 -117 -195 -161 -268 -67 -112 -81 -142 -85 -186 -5
-59 10 -96 53 -136 l27 -25 401 -3 c289 -2 409 1 430 9 40 17 77 85 77 144 0
37 -9 64 -39 119 -59 107 -311 527 -338 562 -35 46 -87 64 -146 49z m66 -167
c25 -33 269 -443 301 -505 23 -46 21 -72 -10 -83 -36 -14 -640 -13 -666 1 -38
21 -15 73 195 424 126 211 137 221 180 163z"/>
</g>
</svg>
